# xmcd
#
# Track frame offsets: 
#        150
#        7825
#        26518
#        42109
#        64027
#        81670
#        84483
#        104114
#        149494
#        171194
#
# Disc length: 2304 seconds
#
# Revision: 0
# Processed by: cddbd v1.5.2PL0 Copyright (c) Steve Scherf et al.
# Submitted via: ExactAudioCopy v1.0b3
#
DISCID=8108fe0a
DTITLE=Crazy As Pinoy - Crazy As Pinoy
DYEAR=2014
DGENRE=Hip-Hop
TTITLE0=Radyo Mimoso
TTITLE1=Di Sinasadya
TTITLE2=La Lola Memorial Park
TTITLE3=Move on
TTITLE4=Manobela
TTITLE5=Ang Paglayo ni Matilde
TTITLE6=Tamang Hinala
TTITLE7=Caller ID
TTITLE8=Tayo pa Kaya
TTITLE9=Pagbitin
EXTD=
EXTT0=
EXTT1=
EXTT2=
EXTT3=
EXTT4=
EXTT5=
EXTT6=
EXTT7=
EXTT8=
EXTT9=
PLAYORDER=
